<svg xmlns="http://www.w3.org/2000/svg" width="101.412" height="33" viewBox="0 0 101.412 33"><defs><style>.a,.b{fill:#5d285f;}.b{fill-rule:evenodd;}</style></defs><g transform="translate(-814 474)"><g transform="translate(814 -474)"><path class="a" d="M176.824,170.715a1.034,1.034,0,0,1-.105.483.972.972,0,0,1-.288.345,1.244,1.244,0,0,1-.433.207,2.146,2.146,0,0,1-.538.066,3.03,3.03,0,0,1-.345-.014c-.124-.014-.24-.026-.362-.047a2.938,2.938,0,0,1-.362-.09,2.253,2.253,0,0,1-.345-.138c-.04-.022-.047-.06-.021-.112l.133-.293a.06.06,0,0,1,.088-.034,3.187,3.187,0,0,0,.6.2,2.562,2.562,0,0,0,.564.069,1.17,1.17,0,0,0,.657-.159.565.565,0,0,0,.172-.71.662.662,0,0,0-.172-.2,1.446,1.446,0,0,0-.284-.172c-.115-.053-.248-.109-.4-.164-.2-.074-.381-.148-.536-.222a1.726,1.726,0,0,1-.381-.241.9.9,0,0,1-.231-.291.843.843,0,0,1-.078-.371.95.95,0,0,1,.315-.739,1.343,1.343,0,0,1,.92-.281,3.535,3.535,0,0,1,.586.052,2.517,2.517,0,0,1,.574.172.069.069,0,0,1,.04.095l-.122.31c-.012.026-.022.041-.031.045a.063.063,0,0,1-.041,0,2.914,2.914,0,0,0-.541-.159,2.7,2.7,0,0,0-.479-.047.806.806,0,0,0-.517.146.462.462,0,0,0-.183.374.436.436,0,0,0,.062.238.623.623,0,0,0,.172.184,1.67,1.67,0,0,0,.3.16c.121.052.265.11.431.172s.3.121.443.186a1.683,1.683,0,0,1,.371.229,1.035,1.035,0,0,1,.257.317.912.912,0,0,1,.1.438m5.324-.92a2.355,2.355,0,0,1-.417,1.5,1.739,1.739,0,0,1-2.475,0,2.341,2.341,0,0,1-.407-1.481,2.709,2.709,0,0,1,.124-.862,1.848,1.848,0,0,1,.345-.631,1.438,1.438,0,0,1,.517-.388,1.6,1.6,0,0,1,.657-.133,1.76,1.76,0,0,1,.717.136,1.346,1.346,0,0,1,.517.393,1.741,1.741,0,0,1,.312.624,3,3,0,0,1,.105.833m-.517.022a3.394,3.394,0,0,0-.048-.586,1.483,1.483,0,0,0-.172-.5.918.918,0,0,0-.345-.345,1.072,1.072,0,0,0-.555-.128,1.035,1.035,0,0,0-.517.121,1.067,1.067,0,0,0-.358.333,1.576,1.576,0,0,0-.21.489,2.4,2.4,0,0,0-.069.588,3.371,3.371,0,0,0,.055.629,1.4,1.4,0,0,0,.186.493.882.882,0,0,0,.345.324,1.12,1.12,0,0,0,.543.117,1.048,1.048,0,0,0,.541-.128.986.986,0,0,0,.345-.345,1.508,1.508,0,0,0,.19-.495,2.994,2.994,0,0,0,.055-.576m3.311,1.829c0,.045,0,.074-.026.086a.134.134,0,0,1-.086.021h-.276a.153.153,0,0,1-.09-.021c-.019-.012-.028-.041-.028-.086v-2.827a1.416,1.416,0,0,1,.046-.365.784.784,0,0,1,.157-.3.728.728,0,0,1,.288-.209,1.127,1.127,0,0,1,.446-.078h1.525a.1.1,0,0,1,.086.028.172.172,0,0,1,.019.09v.226a.172.172,0,0,1-.019.093.118.118,0,0,1-.086.024h-1.479a.469.469,0,0,0-.336.1.42.42,0,0,0-.1.315v.777H186.7a.1.1,0,0,1,.081.024.141.141,0,0,1,.021.086v.215a.148.148,0,0,1-.021.086c-.012.021-.04.031-.081.031h-1.76Zm5.041-3.326h-1.082a.079.079,0,0,1-.064-.019.135.135,0,0,1-.014-.071v-.272a.134.134,0,0,1,.014-.066c.009-.015.031-.022.064-.022h2.718c.033,0,.053,0,.064.022a.134.134,0,0,1,.014.066v.272a.137.137,0,0,1-.014.071.083.083,0,0,1-.064.019h-1.115v3.338c0,.04,0,.066-.022.078a.122.122,0,0,1-.078.017h-.315a.141.141,0,0,1-.081-.017c-.017-.012-.024-.038-.024-.078Zm5.657.121-.184.862-.5,2.213a.485.485,0,0,1-.081.172.194.194,0,0,1-.164.067h-.238a.383.383,0,0,1-.186-.04.229.229,0,0,1-.1-.172l-.76-3.609c-.016-.048,0-.072.043-.072h.395c.055,0,.086.022.095.067l.471,2.33.16.9h.033l.195-.9.477-2.139a.4.4,0,0,1,.081-.172.257.257,0,0,1,.212-.072h.217a.224.224,0,0,1,.183.067.4.4,0,0,1,.083.172l.467,2.118.193.92h.028l.172-.925.438-2.291a.086.086,0,0,1,.095-.067h.383c.045,0,.059.024.045.072l-.765,3.609a.241.241,0,0,1-.1.172.382.382,0,0,1-.186.04h-.24a.2.2,0,0,1-.172-.065.446.446,0,0,1-.079-.172l-.5-2.218-.172-.85Zm6.615,3.313a.249.249,0,0,1-.079-.012c-.021,0-.038-.031-.053-.072l-.278-.815h-1.563l-.277.815a.114.114,0,0,1-.117.084h-.376c-.038,0-.06-.01-.071-.031a.112.112,0,0,1,0-.076l1.253-3.566a.354.354,0,0,1,.1-.172.335.335,0,0,1,.183-.047h.172a.3.3,0,0,1,.2.05.447.447,0,0,1,.1.172l1.248,3.566a.09.09,0,0,1,0,.072c-.009.022-.033.034-.069.034Zm-.926-2.508-.224-.8h-.028l-.253.784-.377,1.187H201.7Zm3.426-1.1a.313.313,0,0,1,.062-.214.281.281,0,0,1,.221-.069h1.272a1.356,1.356,0,0,1,.479.079,1.145,1.145,0,0,1,.369.227,1,1,0,0,1,.238.345,1.141,1.141,0,0,1,.083.439,1.044,1.044,0,0,1-.172.584.929.929,0,0,1-.46.364v.022a.61.61,0,0,1,.328.214,1.107,1.107,0,0,1,.155.345l.321,1.17a.112.112,0,0,1,0,.064c0,.024-.029.036-.069.036h-.367a.174.174,0,0,1-.057-.012.069.069,0,0,1-.041-.06l-.295-1.06a.879.879,0,0,0-.117-.265.578.578,0,0,0-.172-.172.6.6,0,0,0-.215-.083,1.351,1.351,0,0,0-.212-.01h-.793v1.575c0,.04,0,.065-.022.078a.138.138,0,0,1-.083.017h-.309a.14.14,0,0,1-.079-.017.091.091,0,0,1-.026-.078Zm2.213.831a.792.792,0,0,0-.033-.224.538.538,0,0,0-.117-.209.618.618,0,0,0-.221-.152.892.892,0,0,0-.345-.059h-.965v1.31h.926a1.019,1.019,0,0,0,.345-.053.621.621,0,0,0,.236-.145.577.577,0,0,0,.134-.21.741.741,0,0,0,.045-.258m5.408,2.663a.143.143,0,0,1-.021.088c-.012.019-.041.029-.086.029H210.72a1.157,1.157,0,0,1-.453-.077.788.788,0,0,1-.288-.207.732.732,0,0,1-.152-.3,1.49,1.49,0,0,1-.045-.367v-1.973a1.346,1.346,0,0,1,.05-.365.775.775,0,0,1,.164-.3.794.794,0,0,1,.291-.209,1.075,1.075,0,0,1,.433-.078h1.513a.094.094,0,0,1,.081.028.153.153,0,0,1,.019.09v.233a.141.141,0,0,1-.019.086.105.105,0,0,1-.081.024h-1.508a.462.462,0,0,0-.336.1.438.438,0,0,0-.1.319v.72h1.763a.1.1,0,0,1,.081.028.172.172,0,0,1,.019.09v.21a.156.156,0,0,1-.019.083.1.1,0,0,1-.081.028h-1.758v.965a.436.436,0,0,0,.1.3.429.429,0,0,0,.345.114h1.534a.1.1,0,0,1,.086.028.153.153,0,0,1,.021.09Z" transform="translate(-143.924 -138.815)"/><path class="a" d="M297.678,12.078a6.3,6.3,0,0,0-2.011-1.353,6.519,6.519,0,0,0-2.528-.486h-4.6a1.262,1.262,0,0,0-1.094.474,1.7,1.7,0,0,0,0,2.158,1.26,1.26,0,0,0,1.094.474h4.6a2.987,2.987,0,0,1,2.27.932,3.946,3.946,0,0,1,0,5.136,2.558,2.558,0,0,1-2.4.848h-4.593a5.879,5.879,0,0,1-1.77-.122,3.1,3.1,0,0,1-1.069-.726,3.286,3.286,0,0,1-.9-2.378V1.5A1.4,1.4,0,0,0,284.2.412,1.551,1.551,0,0,0,283.137,0h-.15a1.6,1.6,0,0,0-1.062.41,1.473,1.473,0,0,0-.465,1.206V17.078a6.335,6.335,0,0,0,1.875,4.517,6.56,6.56,0,0,0,2.018,1.327,6.26,6.26,0,0,0,2.4.489h5.078a6.18,6.18,0,0,0,2.83-.489,6.4,6.4,0,0,0,2.011-1.35,6.29,6.29,0,0,0,1.351-2.018,7.667,7.667,0,0,0,0-5.441,6.127,6.127,0,0,0-1.351-2.035" transform="translate(-232.832 0)"/><path class="a" d="M412.518,61.456a6.159,6.159,0,0,0-1.884-1.341,5.581,5.581,0,0,0-2.273-.476h-6.2a5.589,5.589,0,0,0-2.28.476,6.18,6.18,0,0,0-1.884,1.341,6.372,6.372,0,0,0-1.274,2.037,8.194,8.194,0,0,0,0,5.5,5.92,5.92,0,0,0,5.445,3.792h6.163a5.418,5.418,0,0,0,2.28-.477,6.059,6.059,0,0,0,1.884-1.341,6.224,6.224,0,0,0,.92-1.239h-5.317c-1.982,0-3.964-.016-5.948-.016a2.894,2.894,0,0,1-2.122-.9,3.864,3.864,0,0,1,0-5.1,2.77,2.77,0,0,1,2.129-1h6.163a3.207,3.207,0,0,1,2.621,2.387h-8.359a1.3,1.3,0,0,0-1.1.446,1.746,1.746,0,0,0,0,2.115,1.288,1.288,0,0,0,1.1.445h11.467a7.525,7.525,0,0,0-1.527-6.653" transform="translate(-327.748 -49.327)"/><path class="a" d="M523.423,59.695a1.447,1.447,0,0,0-1.189-.455h-5.293a5.966,5.966,0,0,0-2.43.5,6.645,6.645,0,0,0-3.394,3.394,5.984,5.984,0,0,0-.517,2.43v5.308a1.455,1.455,0,0,0,.464,1.191,1.579,1.579,0,0,0,2.092,0,1.469,1.469,0,0,0,.458-1.191v-5.3a3.437,3.437,0,0,1,3.326-3.326h5.284a1.451,1.451,0,0,0,1.189-.457,1.646,1.646,0,0,0,.393-.831v-.433a1.662,1.662,0,0,0-.384-.834" transform="translate(-422.396 -48.996)"/><path class="a" d="M82.419,58.12a1.634,1.634,0,0,0-1.094.422,1.534,1.534,0,0,0-.484,1.243V69.991a1.347,1.347,0,0,0,.469,1.151,1.829,1.829,0,0,0,2.216,0,1.35,1.35,0,0,0,.465-1.151V59.785a1.511,1.511,0,0,0-.481-1.243,1.629,1.629,0,0,0-1.091-.422" transform="translate(-66.907 -48.069)"/><path class="a" d="M116.783,59.179h-1.3a6.358,6.358,0,0,0-2.546.507,6.19,6.19,0,0,0-2.034,1.4,6.5,6.5,0,0,0-1.841,4.51v5.312a1.293,1.293,0,0,0,.455,1.11,1.7,1.7,0,0,0,1.075.374,1.723,1.723,0,0,0,1.074-.374,1.3,1.3,0,0,0,.455-1.11V65.594a2.93,2.93,0,0,1,.681-1.9,2.754,2.754,0,0,1,2.413-1.22h2.93a3.306,3.306,0,0,1,2.282.889,2.89,2.89,0,0,1,1.012,2.227v5.158A1.5,1.5,0,0,0,121.921,72a1.62,1.62,0,0,0,2.189,0,1.5,1.5,0,0,0,.476-1.243V65.594a2.982,2.982,0,0,1,.662-1.9,3.521,3.521,0,0,1,1.363-1.079,1.838,1.838,0,0,1,.934-.157h3.089a3.459,3.459,0,0,1,2.328.9A2.882,2.882,0,0,1,134,65.6v5.343a1.259,1.259,0,0,0,.464,1.087,1.723,1.723,0,0,0,2.139,0,1.259,1.259,0,0,0,.455-1.087V65.594a6.134,6.134,0,0,0-.507-2.444,6.591,6.591,0,0,0-1.394-2.068,6.518,6.518,0,0,0-2.068-1.4,6.107,6.107,0,0,0-2.454-.507h-2.715a5.672,5.672,0,0,0-2.606.595,8.052,8.052,0,0,0-2.1,1.491l-.19.191-.193-.191a7.816,7.816,0,0,0-2.1-1.491,5.65,5.65,0,0,0-2.6-.595Z" transform="translate(-90.212 -48.944)"/><path class="a" d="M4.042,19.365a3.12,3.12,0,0,1-.981-2.287V2.964h0V1.622A1.463,1.463,0,0,0,2.594.415,1.617,1.617,0,0,0,1.529,0,1.6,1.6,0,0,0,.467.41,1.47,1.47,0,0,0,0,1.622V17.078A6.355,6.355,0,0,0,1.882,21.6,6.587,6.587,0,0,0,3.9,22.923a6.249,6.249,0,0,0,2.428.489h4.376a1.349,1.349,0,0,0,1.151-.469,1.829,1.829,0,0,0,0-2.216,1.353,1.353,0,0,0-1.151-.467H6.956c-1.282,0-1.913.122-2.914-.894" transform="translate(0 0)"/><path class="b" d="M82.563,33.26a1.565,1.565,0,1,1-1.105.459,1.567,1.567,0,0,1,1.105-.459" transform="translate(-67.039 -27.515)"/></g></g></svg>